<svg width="36" height="36" viewBox="0 0 36 36" fill="currentColor" xmlns="http://www.w3.org/2000/svg">
<g clip-path="url(#clip0_368_5326)">
<path d="M2.31611 24.2759C1.54407 24.2777 0.772035 24.2791 0 24.2809V2.38599C0.772389 2.3874 1.54442 2.38917 2.31681 2.39059L2.30867 2.37891C2.31894 2.5297 2.33841 2.68085 2.33876 2.83165C2.34018 9.84404 2.34018 16.8568 2.33876 23.8692C2.33876 24.0079 2.31965 24.1467 2.30938 24.2855L2.31611 24.2759Z" />
<path d="M6.24878 35.9996V26.6184H2.31923C2.31923 25.8088 2.31923 25.0421 2.31923 24.2754L2.3125 24.2849H8.61126V33.691H10.9564L10.9454 33.6835C10.9472 34.4556 10.9486 35.2276 10.9504 35.9996H6.24878Z" />
<path d="M2.321 2.39199V0.0957031H33.6134V2.38809L33.6251 2.37995C33.4743 2.39022 33.3231 2.41004 33.1723 2.41004C23.0367 2.41146 12.9012 2.41146 2.76524 2.41004C2.61445 2.41004 2.4633 2.39057 2.3125 2.37995L2.32064 2.39163L2.321 2.39199Z" />
<path d="M33.6129 2.38705H35.9088V24.2759H33.6175L33.6242 24.2855C33.6139 24.1584 33.5948 24.0313 33.5948 23.9042C33.5934 16.8685 33.5934 9.83236 33.5948 2.79661C33.5948 2.65749 33.6143 2.51838 33.6249 2.37891L33.6132 2.38705H33.6129Z" />
<path d="M33.6158 24.2754V26.6234H33.1765C28.2314 26.6234 23.2859 26.6234 18.3408 26.6219C18.214 26.6219 18.0877 26.5993 17.9609 26.5872L17.9719 26.5996V24.2853H33.6225L33.6158 24.2757V24.2754Z" />
<path d="M17.9585 26.5863V28.976H15.6484L15.6559 28.987V26.5983H17.9691L17.9582 26.5859L17.9585 26.5863Z" />
<path d="M15.644 28.9766V31.2891H13.25L13.2627 31.3019V28.9875H15.6514L15.644 28.9766Z" />
<path d="M13.2501 31.2914V33.685C12.4667 33.685 11.7021 33.685 10.9375 33.685L10.9485 33.6924V31.3038H13.2628L13.2501 31.291V31.2914Z" />
<path d="M11.7095 11.0273V15.6695H7.04688V11.0273H11.7095Z" />
<path d="M24.2344 11.0195H28.8779V15.6641H24.2344V11.0195Z" />
<path d="M15.6562 11.0254H20.2842V15.6728H15.6562V11.0254Z" />
</g>
<defs>
<clipPath id="clip0_368_5326">
<rect width="36" height="36" fill="white"/>
</clipPath>
</defs>
</svg>
