<svg width="36" height="36" viewBox="0 0 36 36" fill="currentColor" xmlns="http://www.w3.org/2000/svg">
<path d="M32.8091 0C32.8228 0.337604 32.8473 0.675207 32.8485 1.01281C32.8535 2.19442 32.8506 3.37645 32.8502 4.55806C32.8502 4.60493 32.8444 4.6518 32.8402 4.71401H30.5276V7.00631H28.2038L28.2083 7.01088V4.72396H30.5081V2.37484H10.2486V6.98267H7.87622C7.87622 9.27166 7.87497 11.5295 7.87912 13.7874C7.87912 13.9471 7.83723 14.0047 7.66885 14.0023C7.03304 13.9931 6.39723 13.9981 5.76101 13.9989C5.68677 13.9989 5.61295 14.0052 5.54285 14.0085V21.0629H11.7719V33.541H14.0862V35.8598H9.45848V23.4452H3.23438V14.0039H5.51341V7.00134C5.60921 6.99636 5.68221 6.98889 5.7552 6.98889C6.35659 6.98806 6.95797 6.98848 7.55935 6.98848C7.86004 6.98848 7.86087 6.98848 7.8617 6.67576C7.86253 6.2747 7.8617 5.87406 7.8617 5.473C7.8617 3.7518 7.8617 2.0306 7.86087 0.309401C7.86087 0.206129 7.84802 0.103272 7.84138 0C16.1641 0 24.4864 0 32.8091 0Z" />
<path d="M25.7983 21.9029V18.7458H16.4844V16.4033H18.7754V14.0762H21.1403V16.3768H28.1475V21.8979H25.7934L25.7983 21.9029Z" />
<path d="M25.7922 21.8965V24.1938H23.5044V26.4939H21.1719V24.2008H23.487V21.9015C24.2713 21.9015 25.034 21.9015 25.7971 21.9015L25.7922 21.8965Z" />
<path d="M18.7849 28.9062V31.1927H16.4735V33.5203H14.1484V31.1952H16.4727V28.9108H18.7895L18.7849 28.9062Z" />
<path d="M21.1719 14.0031V11.7302C21.2635 11.7302 21.344 11.7302 21.4249 11.7302C22.0399 11.7302 22.655 11.7236 23.2701 11.7344C23.4538 11.7377 23.5202 11.6958 23.516 11.4972C23.5023 10.8825 23.511 10.267 23.511 9.65195V9.41016H25.7897V11.7207H23.5202V14.0035H21.1719V14.0031Z" />
<path d="M28.2036 7.00586V9.32056H25.8516V7.01042C26.6392 7.01042 27.4235 7.01042 28.2082 7.01042L28.2036 7.00586Z" />
<path d="M18.7858 28.9104V26.5625H21.098V28.9058C20.3233 28.9058 19.5523 28.9058 18.7812 28.9058L18.7858 28.9104Z" />
</svg>
