<svg width="36" height="36" viewBox="0 0 36 36" fill="currentColor" xmlns="http://www.w3.org/2000/svg">
<g clip-path="url(#clip0_226_101649)">
<path d="M11.0089 33.6828C11.0105 34.4552 11.0124 35.2272 11.0139 35.9996H4.76799C4.76453 35.1819 4.75877 34.3645 4.75839 33.5468C4.75762 29.2946 4.75762 25.0425 4.75839 20.7903C4.75839 20.639 4.76953 20.4873 4.77567 20.3359L4.76261 20.3509C5.53001 20.3509 6.2974 20.3509 7.10129 20.3509V33.659C7.42776 33.659 7.71736 33.6567 8.00734 33.6594C9.01133 33.6686 10.0153 33.6797 11.0193 33.6905L11.0086 33.6828H11.0089Z" />
<path d="M25.0526 35.9996C25.0542 35.2272 25.0561 34.4552 25.0576 33.6828L25.0469 33.6905C25.1859 33.6801 25.3249 33.6609 25.464 33.6605C26.5045 33.6578 27.5446 33.6597 28.585 33.6582C28.7087 33.6582 28.8328 33.6463 28.9929 33.6382V20.3509H31.304L31.2909 20.3359C31.297 20.4408 31.3082 20.5456 31.3082 20.6501C31.3089 25.6966 31.3089 30.743 31.3082 35.7895C31.3082 35.8594 31.302 35.9293 31.299 35.9992H25.053L25.0526 35.9996Z" />
<path d="M36.0006 18.0314C35.2285 18.0298 34.4565 18.0283 33.6845 18.0264L33.6915 18.036C33.6811 16.893 33.6707 15.7499 33.6607 14.6069C33.6596 14.4587 33.6607 14.3104 33.6607 14.1214H26.6005V11.7793L26.5859 11.7908C29.7243 11.7885 32.8626 11.7866 36.0009 11.7843V18.0314H36.0006Z" />
<path d="M2.38787 18.0264H0.09375V11.7908H9.48686L9.47226 11.7793V14.1214H2.41207C2.41207 14.4153 2.41399 14.6687 2.41207 14.9222C2.40247 15.96 2.39171 16.9982 2.38173 18.036L2.38864 18.0264H2.38787Z" />
<path d="M14.1112 6.31296C14.1162 5.13652 14.1327 3.95969 14.1185 2.78363C14.1146 2.47214 14.2026 2.38649 14.5098 2.39456C15.1724 2.41184 15.8361 2.38803 16.4994 2.38111L16.4906 2.37305V6.30413H14.1016L14.1112 6.31334V6.31296Z" />
<path d="M19.5703 2.38111C20.2571 2.38803 20.9438 2.40493 21.6301 2.39724C21.8725 2.39456 21.9501 2.46753 21.9489 2.71373C21.9424 3.9136 21.9539 5.11347 21.9589 6.31334L21.9685 6.30413H19.5795V2.37305L19.5707 2.38111H19.5703Z" />
<path d="M11.7924 9.47989V6.31391C12.5782 6.31391 13.3414 6.31391 14.1049 6.31391L14.0953 6.30469V9.46491H11.7812L11.7928 9.47951L11.7924 9.47989Z" />
<path d="M21.9609 6.31352H24.2735V9.47951L24.285 9.46491H21.9709V6.30469L21.9613 6.31391L21.9609 6.31352Z" />
<path d="M16.4932 2.38041V0.0839844H19.5701C19.5701 0.848692 19.5701 1.61455 19.5701 2.38041L19.5789 2.37234C18.5473 2.37234 17.516 2.37234 16.4844 2.37234L16.4932 2.38041Z" />
<path d="M4.7759 20.3356H2.38191C2.38191 19.5594 2.38191 18.7924 2.38191 18.0254L2.375 18.035H4.76284V20.3506L4.7759 20.3356Z" />
<path d="M9.48373 11.7912V9.47944C10.2484 9.47944 11.0216 9.47944 11.7948 9.47944L11.7832 9.46484V11.7797H9.46875L9.48335 11.7912H9.48373Z" />
<path d="M24.2738 9.47944H26.5848C26.5848 10.2441 26.5848 11.0177 26.5848 11.7912L26.5994 11.7797H24.285V9.46484L24.2734 9.47944H24.2738Z" />
<path d="M33.683 18.0254V20.3356C32.8427 20.3356 32.0661 20.3356 31.2891 20.3356L31.3021 20.3506V18.035H33.69L33.683 18.0254Z" />
<path d="M21.2072 31.2893C19.4324 31.295 17.6575 31.3023 15.8823 31.3062C15.5439 31.307 15.2056 31.2954 14.8672 31.2893L14.8829 31.302V28.9863H21.1911V31.302L21.2068 31.2893H21.2072Z" />
<path d="M14.8684 31.2891V33.683C13.5805 33.683 12.2981 33.683 11.0156 33.683L11.0264 33.6907V31.3021H14.8841L14.8684 31.2894V31.2891Z" />
<path d="M25.056 33.683C23.911 33.6754 22.7661 33.6673 21.6215 33.6596C21.484 33.6588 21.3465 33.6596 21.2032 33.6596C21.2032 32.8431 21.2032 32.0661 21.2032 31.2891L21.1875 31.3017H25.0452V33.6903L25.056 33.6827V33.683Z" />
</g>
<defs>
<clipPath id="clip0_226_101649">
<rect width="36" height="36" fill="white"/>
</clipPath>
</defs>
</svg>
