<svg width="36" height="36" viewBox="0 0 36 36" fill="currentColor" xmlns="http://www.w3.org/2000/svg">
<g clip-path="url(#clip0_368_5416)">
<path d="M36.0012 14.7754C35.9746 14.7846 35.9484 14.802 35.9217 14.802C35.1717 14.8033 34.4217 14.803 33.6495 14.803V7.82991H26.6187V2.38658H9.45474V7.79886H2.43081V14.8003H0.101562V5.46688H7.06816C7.07362 5.40136 7.08079 5.35223 7.08079 5.30309C7.08147 3.58567 7.08147 1.86825 7.08079 0.150825C7.08079 0.100663 7.07021 0.0501611 7.06475 0C14.3671 0 21.6695 0 28.9719 0C28.9701 0.0225213 28.9667 0.0453839 28.9667 0.0679052C28.9667 1.82457 28.9664 3.58157 28.9667 5.33824C28.9667 5.38123 28.9756 5.42457 28.9814 5.47678H29.2148C31.398 5.47678 33.5812 5.47678 35.7644 5.47746C35.8433 5.47746 35.9224 5.48804 36.0012 5.49384V14.7754Z" />
<path d="M7.10156 31.25H9.42706V33.5339H26.5924V31.2503H28.9186V35.8689H7.10156V31.25Z" />
<path d="M16.4381 31.1844H9.46875V28.9032H14.0716V26.5549H11.785V24.1935H9.47012V21.9062H11.7833V24.1857H16.4381V31.1844Z" />
<path d="M24.272 24.2071C24.2655 24.274 24.2532 24.3405 24.2532 24.4074C24.2519 25.1062 24.2522 25.8051 24.2522 26.5251H21.9687V28.8594H26.5671V31.1829H19.6016V24.1982C19.651 24.1948 19.705 24.188 19.7589 24.188C21.2084 24.1873 22.6583 24.1873 24.1079 24.1883C24.1632 24.1883 24.2184 24.202 24.2737 24.2091L24.2713 24.2071H24.272Z" />
<path d="M26.641 21.8257V17.1723H31.2595V14.8516H33.5994V17.1689C33.5335 17.1689 33.4731 17.1689 33.4124 17.1689C32.8268 17.1689 32.2413 17.1689 31.6557 17.1689C31.3921 17.1689 31.2602 17.2979 31.2602 17.5558V19.3125C31.2602 19.3732 31.2602 19.4336 31.2602 19.5073H28.9764V21.8257H26.6406H26.641Z" />
<path d="M4.77344 17.1659C6.23971 17.1672 7.70565 17.1686 9.17192 17.17C9.24529 17.17 9.31865 17.17 9.40703 17.17V21.8329H7.09859V19.5262H4.77753V17.1621L4.77378 17.1659H4.77344Z" />
<path d="M26.6328 10.168H31.2466V12.4709H28.9784V14.7896H26.6332V10.168H26.6328Z" />
<path d="M9.41208 10.18V14.7942H7.10228V12.4939H4.78906V10.1797H9.41242L9.41208 10.18Z" />
<path d="M4.78177 17.1617H2.4375V14.8594H4.77767C4.77767 15.6271 4.77767 16.3963 4.77767 17.1654L4.78142 17.1617H4.78177Z" />
<path d="M24.2742 24.2089C24.2688 24.1424 24.2585 24.0755 24.2585 24.0089C24.2575 23.305 24.2579 22.601 24.2579 21.8848H26.5707V24.1874H26.381C25.7388 24.1874 25.097 24.1867 24.4548 24.1881C24.3937 24.1881 24.3326 24.2 24.2719 24.2069L24.2742 24.2089Z" />
</g>
<defs>
<clipPath id="clip0_368_5416">
<rect width="36" height="36" fill="white"/>
</clipPath>
</defs>
</svg>
