<svg width="244" height="33" viewBox="0 0 244 33" fill="none" xmlns="http://www.w3.org/2000/svg">
<path d="M4.3982 11.5032V6.4785H15.2247V2.04688H0V31.8294H20.0423L20.1174 29.6882C20.3052 24.2281 18.4149 19.1676 14.9305 15.8003C12.1556 13.1207 8.54812 11.6547 4.3982 11.5032ZM4.3982 27.3957V15.9433C7.38806 16.0905 9.9502 17.1316 11.8885 19.0036C14.0229 21.0669 15.3478 24.0493 15.6608 27.3957H4.3982Z" fill="white"/>
<path d="M37.938 0.875C29.152 0.875 22.0039 8.08085 22.0039 16.9378C22.0039 25.7947 29.152 32.9985 37.938 32.9985C46.724 32.9985 53.8721 25.7926 53.8721 16.9378C53.8721 8.08296 46.724 0.875 37.938 0.875ZM35.7389 28.3523C30.4268 27.3133 26.4021 22.5914 26.4021 16.9399C26.4021 11.2884 30.4268 6.56228 35.7389 5.52536V28.3523ZM40.1371 28.3523V5.52326C45.4492 6.56018 49.4739 11.2821 49.4739 16.9378C49.4739 22.5935 45.4492 27.3133 40.1371 28.3502V28.3523Z" fill="white"/>
<path d="M77.3785 2.04688H72.9803C72.9803 6.90336 71.2005 12.6201 63.101 13.493C62.9758 10.6767 62.2164 5.9695 59.2578 2.04688H53.4805L54.8012 3.44135C59.3517 8.02862 58.6924 15.531 58.6882 15.5983L58.4399 18.0402H60.8769C66.5248 18.0402 70.8333 16.3681 73.7022 13.0807C75.2879 18.7785 73.385 23.4226 70.3388 25.7951C66.6396 28.6745 61.7261 28.2391 57.8202 24.6845L55.3186 28.3674C58.0205 30.6747 61.1126 31.9661 64.2944 32.1112C64.4906 32.1196 64.6867 32.1238 64.8828 32.1238C67.8038 32.1238 70.6748 31.1332 73.0262 29.3033C78.0274 25.4081 80.9588 17.3798 76.4897 8.06227C77.0759 6.24083 77.3785 4.21957 77.3785 2.04688Z" fill="white"/>
<path d="M98.0519 7.99346C98.5651 7.99346 98.9803 7.91774 99.2954 7.7642C99.6104 7.61066 99.8378 7.39613 99.9818 7.11849C100.126 6.84086 100.197 6.51906 100.197 6.15309C100.197 5.68616 100.111 5.32019 99.938 5.05728C99.7669 4.79437 99.5124 4.60928 99.1764 4.50411C98.8405 4.39895 98.4253 4.34426 97.9287 4.34426H97.0879V3.45037H99.8086V2.03906H95.4062V7.99136H98.0519V7.99346ZM97.8119 5.47162C97.8912 5.47162 97.9705 5.48214 98.0477 5.50317C98.1249 5.52421 98.1958 5.55786 98.2584 5.60623C98.321 5.65251 98.3711 5.7156 98.4086 5.79343C98.4441 5.87125 98.4629 5.968 98.4629 6.08158C98.4629 6.24563 98.4337 6.37814 98.3752 6.47699C98.3147 6.57585 98.2313 6.64526 98.1186 6.68732C98.008 6.72939 97.8724 6.75042 97.7159 6.75042H97.09V5.47373H97.8161L97.8119 5.47162Z" fill="white"/>
<path d="M103.249 7.07403C103.264 7.01093 103.278 6.95624 103.293 6.89525H105.102C105.116 6.95834 105.131 7.01303 105.148 7.07823C105.223 7.39372 105.298 7.6987 105.369 7.99737H107.134C107.038 7.67977 106.936 7.34745 106.829 7.00041C106.723 6.65337 106.619 6.31474 106.516 5.98663L105.895 3.94013C105.784 3.58047 105.684 3.25446 105.594 2.9579C105.504 2.66344 105.411 2.35846 105.315 2.04297H103.132C103.04 2.34374 102.949 2.6403 102.859 2.93686C102.767 3.23132 102.667 3.56575 102.552 3.94013L101.926 5.98663C101.826 6.30212 101.722 6.63654 101.615 6.98989C101.507 7.34535 101.405 7.68187 101.309 7.99737H103.015C103.09 7.70291 103.168 7.39372 103.249 7.07403ZM104.267 3.47951L104.787 5.62066H103.61L104.146 3.47951H104.267Z" fill="white"/>
<path d="M108.672 8.08781C108.768 8.09622 108.873 8.10043 108.983 8.10043C109.384 8.10043 109.701 8.03312 109.933 7.90062C110.166 7.76601 110.342 7.56619 110.46 7.29908C110.579 7.03196 110.665 6.70174 110.715 6.30633C110.767 5.91091 110.811 5.4545 110.846 4.93709C110.876 4.48699 110.907 4.05371 110.94 3.64146C110.944 3.58468 110.949 3.52578 110.953 3.469H112.201V7.99947H113.916V2.04297H109.434C109.417 2.40684 109.401 2.78122 109.38 3.16192C109.361 3.54261 109.342 3.91279 109.325 4.26824C109.298 4.80037 109.254 5.23996 109.196 5.5849C109.136 5.93194 109.052 6.19065 108.939 6.35891C108.829 6.52927 108.681 6.61341 108.499 6.61341C108.468 6.61341 108.432 6.61341 108.391 6.6071C108.349 6.60289 108.299 6.59658 108.238 6.58817L108.176 8.00368C108.245 8.0205 108.32 8.03733 108.403 8.05205C108.487 8.06678 108.576 8.0794 108.672 8.08781Z" fill="white"/>
<path d="M117.046 6.07076V7.99526H118.749V3.53209H120.393V2.04297H115.402V3.53209H117.046V6.07076Z" fill="white"/>
<path d="M123.896 7.08875C124.099 6.77746 124.318 6.44094 124.56 6.07707L125.346 4.87399H125.459V7.99737H127.12V2.04297H125.682C125.457 2.39632 125.242 2.72864 125.04 3.03782C124.839 3.34911 124.639 3.65829 124.439 3.96747L123.665 5.16214H123.544V2.04507H121.883V7.99737H123.304C123.498 7.70291 123.694 7.40003 123.896 7.08875Z" fill="white"/>
<path d="M130.465 1.4744C130.738 1.59639 131.085 1.65739 131.502 1.65739C131.919 1.65739 132.274 1.59639 132.549 1.4744C132.823 1.35241 133.029 1.17153 133.163 0.931755C133.298 0.691981 133.367 0.397521 133.369 0.0462723H132.159C132.159 0.254497 132.107 0.426967 132.003 0.561577C131.898 0.696187 131.731 0.763492 131.502 0.763492C131.272 0.763492 131.106 0.691981 131.001 0.553164C130.897 0.412244 130.845 0.229258 130.845 0L129.637 0.0462723C129.643 0.397521 129.714 0.691981 129.85 0.931755C129.985 1.17153 130.192 1.35241 130.467 1.4744H130.465Z" fill="white"/>
<path d="M130.916 7.08875C131.118 6.77746 131.337 6.44094 131.579 6.07707L132.366 4.87399H132.478V7.99737H134.139V2.04297H132.702C132.476 2.39632 132.262 2.72864 132.059 3.03782C131.859 3.34911 131.659 3.65829 131.458 3.96747L130.684 5.16214H130.563V2.04507H128.902V7.99737H130.323C130.517 7.70291 130.713 7.40003 130.916 7.08875Z" fill="white"/>
<path d="M136.555 7.27759C136.83 7.54681 137.164 7.75503 137.554 7.90016C137.944 8.04529 138.382 8.1168 138.869 8.1168C139.04 8.1168 139.211 8.11049 139.382 8.09577C139.553 8.08104 139.72 8.06001 139.88 8.03056C140.041 8.00112 140.195 7.96326 140.342 7.91699C140.488 7.86861 140.621 7.81603 140.74 7.75503L140.657 6.18809C140.521 6.28904 140.387 6.37318 140.258 6.44258C140.127 6.51199 139.997 6.56668 139.866 6.60454C139.736 6.6445 139.607 6.67184 139.48 6.69077C139.353 6.7097 139.229 6.71812 139.108 6.71812C138.831 6.71812 138.591 6.67395 138.389 6.5814C138.184 6.49096 138.015 6.36687 137.882 6.21122C137.748 6.05558 137.648 5.8747 137.581 5.67068C137.514 5.46666 137.481 5.25213 137.481 5.02497C137.481 4.6569 137.546 4.34982 137.675 4.10163C137.804 3.85344 137.982 3.66835 138.205 3.54426C138.428 3.42016 138.683 3.35917 138.967 3.35917C139.121 3.35917 139.288 3.3802 139.463 3.41806C139.64 3.45802 139.828 3.51902 140.024 3.60315C140.221 3.68728 140.429 3.80086 140.644 3.93968L140.765 2.3538C140.646 2.2907 140.511 2.23181 140.356 2.18133C140.202 2.13085 140.039 2.08458 139.866 2.04462C139.693 2.00465 139.513 1.971 139.325 1.94787C139.14 1.92473 138.952 1.91211 138.764 1.91211C138.107 1.91211 137.552 2.04882 137.095 2.32015C136.64 2.59147 136.292 2.96375 136.056 3.43278C135.818 3.90392 135.699 4.43605 135.699 5.03128C135.699 5.50242 135.772 5.92518 135.918 6.30587C136.064 6.68446 136.275 7.00837 136.553 7.27759H136.555Z" fill="white"/>
<path d="M144.105 7.07853V5.55996H144.353L144.941 6.62422C145.058 6.84086 145.177 7.06171 145.3 7.28465C145.423 7.5076 145.553 7.74317 145.688 7.99346H147.727C147.614 7.80627 147.478 7.58963 147.32 7.33724C147.163 7.08695 147.001 6.82824 146.836 6.56112C146.671 6.29401 146.514 6.04582 146.368 5.81867L145.699 4.74599L146.31 3.88995C146.533 3.57867 146.754 3.26948 146.976 2.96451C147.197 2.65953 147.418 2.35035 147.645 2.03906H145.707C145.538 2.31249 145.39 2.55016 145.263 2.75208C145.135 2.95609 145.006 3.15801 144.874 3.36203L144.332 4.22227H144.109V2.03906H142.406V7.99136H144.109V7.07433L144.105 7.07853Z" fill="white"/>
<path d="M151.154 7.08875C151.356 6.77746 151.575 6.44094 151.818 6.07707L152.604 4.87399H152.717V7.99737H154.378V2.04297H152.94C152.715 2.39632 152.5 2.72864 152.297 3.03782C152.097 3.34911 151.897 3.65829 151.697 3.96747L150.922 5.16214H150.801V2.04507H149.141V7.99737H150.561C150.756 7.70291 150.952 7.40003 151.154 7.08875Z" fill="white"/>
<path d="M157.723 1.4744C157.996 1.59639 158.343 1.65739 158.76 1.65739C159.177 1.65739 159.532 1.59639 159.807 1.4744C160.081 1.35241 160.287 1.17153 160.421 0.931755C160.554 0.691981 160.625 0.397521 160.627 0.0462723H159.417C159.417 0.254497 159.365 0.426967 159.261 0.561577C159.156 0.696187 158.989 0.763492 158.76 0.763492C158.53 0.763492 158.363 0.691981 158.259 0.553164C158.155 0.412244 158.103 0.229258 158.103 0L156.895 0.0462723C156.901 0.397521 156.972 0.691981 157.107 0.931755C157.243 1.17153 157.45 1.35241 157.725 1.4744H157.723Z" fill="white"/>
<path d="M158.177 7.08875C158.38 6.77746 158.599 6.44094 158.841 6.07707L159.628 4.87399H159.74V7.99737H161.401V2.04297H159.963C159.738 2.39632 159.523 2.72864 159.321 3.03782C159.121 3.34911 158.92 3.65829 158.72 3.96747L157.946 5.16214H157.825V2.04507H156.164V7.99737H157.585C157.779 7.70291 157.975 7.40003 158.177 7.08875Z" fill="white"/>
<path d="M102.026 15.6478C101.836 15.2776 101.533 14.9894 101.12 14.7833C100.72 14.5835 100.192 14.4847 99.5513 14.4783V13.8516H97.8989V14.4783C97.2604 14.4847 96.7367 14.5835 96.3362 14.7833C95.923 14.9894 95.6205 15.2776 95.4286 15.6478C95.2366 16.0179 95.1406 16.4491 95.1406 16.9413C95.1406 17.2988 95.1928 17.6249 95.2971 17.9235C95.4014 18.2222 95.5683 18.4809 95.7937 18.6996C96.019 18.9184 96.3153 19.0908 96.6804 19.2107C97.0184 19.3222 97.4274 19.3769 97.8989 19.3853V20.0142H99.5513V19.3874C100.196 19.3769 100.72 19.2759 101.116 19.0761C101.536 18.8658 101.84 18.5755 102.028 18.2054C102.216 17.8352 102.31 17.4145 102.31 16.9413C102.31 16.468 102.216 16.0179 102.024 15.6478H102.026ZM96.9496 17.5639C96.8828 17.383 96.8473 17.1748 96.8473 16.9371C96.8473 16.6994 96.8828 16.4828 96.9517 16.2998C97.0205 16.1168 97.1373 15.9759 97.3022 15.8728C97.4628 15.774 97.6819 15.7235 97.9552 15.7214V18.1402C97.6777 18.136 97.4566 18.0876 97.298 17.9887C97.1332 17.8857 97.0184 17.7426 96.9496 17.5618V17.5639ZM100.503 17.5639C100.436 17.7447 100.319 17.8878 100.154 17.9908C99.9937 18.0897 99.7746 18.1402 99.5013 18.1423V15.7256C99.7746 15.7256 99.9937 15.7761 100.152 15.877C100.315 15.978 100.432 16.121 100.501 16.304C100.57 16.487 100.605 16.6994 100.605 16.9413C100.605 17.1832 100.572 17.3872 100.505 17.5681L100.503 17.5639Z" fill="white"/>
<path d="M105.49 15.3305H107.883V13.957H103.816V19.9093H107.929V18.5359H105.49V17.541H107.77V16.2938H105.49V15.3284V15.3305Z" fill="white"/>
<path d="M115.025 17.7051V13.957H110.539C110.522 14.2704 110.505 14.6006 110.484 14.9456C110.466 15.2905 110.447 15.6439 110.426 16.0056C110.399 16.5041 110.347 16.9206 110.272 17.2571C110.194 17.5936 110.105 17.8628 110 18.0605C109.896 18.2582 109.786 18.3971 109.669 18.4833H109.199V21.1692H110.624L110.699 19.9072H114.28L114.355 21.1692H115.78V18.4833H115.022V17.703L115.025 17.7051ZM111.405 18.4854C111.513 18.3403 111.607 18.193 111.674 18.0374C111.763 17.825 111.828 17.581 111.868 17.3097C111.907 17.0362 111.939 16.7144 111.957 16.3401C111.976 16.0204 111.993 15.7007 112.01 15.3789H113.312V18.4854H111.407H111.405Z" fill="white"/>
<path d="M118.876 15.3305H121.27V13.957H117.203V19.9093H121.315V18.5359H118.876V17.541H121.157V16.2938H118.876V15.3284V15.3305Z" fill="white"/>
<path d="M124.662 18.9942V17.9826H125.693C126.185 17.9826 126.582 17.8963 126.888 17.7239C127.193 17.5514 127.416 17.3116 127.56 17.0045C127.702 16.6975 127.773 16.3378 127.773 15.9298C127.773 15.4292 127.687 15.0338 127.514 14.7456C127.343 14.4575 127.087 14.2534 126.751 14.1357C126.413 14.0179 125.997 13.959 125.503 13.959H122.98V19.9113H124.662V18.9942ZM125.632 15.3114C125.712 15.3345 125.78 15.3745 125.843 15.4271C125.904 15.4818 125.952 15.5533 125.985 15.6437C126.02 15.7342 126.037 15.8456 126.037 15.9802C126.037 16.1527 126.01 16.2957 125.958 16.4072C125.906 16.5187 125.824 16.6007 125.714 16.6554C125.603 16.7101 125.459 16.7374 125.284 16.7374H124.662V15.2756H125.388C125.474 15.2756 125.555 15.2883 125.634 15.3114H125.632Z" fill="white"/>
<path d="M133.978 18.9125C133.871 18.5655 133.767 18.2268 133.665 17.8987L133.043 15.8522C132.932 15.4926 132.832 15.1666 132.743 14.87C132.653 14.5755 132.559 14.2706 132.463 13.9551H130.281C130.189 14.2558 130.097 14.5524 130.007 14.849C129.915 15.1434 129.813 15.4779 129.701 15.8522L129.075 17.8987C128.974 18.2142 128.87 18.5487 128.764 18.902C128.655 19.2575 128.553 19.594 128.457 19.9095H130.164C130.239 19.615 130.316 19.3058 130.395 18.9861C130.412 18.923 130.425 18.8684 130.439 18.8074H132.248C132.263 18.8705 132.277 18.9251 132.294 18.9903C132.369 19.3058 132.444 19.6108 132.515 19.9095H134.28C134.184 19.5919 134.082 19.2596 133.976 18.9125H133.978ZM131.416 15.3937L131.935 17.5349H130.758L131.295 15.3937H131.416Z" fill="white"/>
<path d="M139.345 17.9848V19.9093H141.06V13.957H136.578C136.562 14.3209 136.545 14.6953 136.524 15.076C136.505 15.4567 136.487 15.8269 136.47 16.1823C136.443 16.7144 136.399 17.154 136.341 17.499C136.28 17.846 136.197 18.1047 136.084 18.273C135.973 18.4433 135.825 18.5275 135.644 18.5275C135.612 18.5275 135.577 18.5275 135.535 18.5212C135.493 18.5148 135.443 18.5106 135.383 18.5022L135.32 19.9177C135.389 19.9346 135.464 19.9514 135.548 19.9661C135.631 19.9808 135.721 19.9935 135.817 20.0019C135.913 20.0103 136.017 20.0145 136.128 20.0145C136.528 20.0145 136.845 19.9472 137.077 19.8147C137.311 19.6801 137.486 19.4803 137.605 19.2131C137.724 18.946 137.809 18.6158 137.859 18.2204C137.91 17.825 137.953 17.3686 137.991 16.8512C138.02 16.401 138.051 15.9678 138.085 15.5555C138.089 15.4987 138.093 15.4398 138.097 15.3831H139.345V17.989V17.9848Z" fill="white"/>
<path d="M144.514 13.9572H142.832V19.9095H145.478C145.991 19.9095 146.406 19.8232 146.721 19.6529C147.036 19.4825 147.264 19.2406 147.408 18.9315C147.552 18.6223 147.622 18.2626 147.622 17.8546C147.622 17.3477 147.537 16.9502 147.364 16.662C147.193 16.3739 146.938 16.1719 146.602 16.0521C146.266 15.9343 145.851 15.8754 145.355 15.8754H144.514V13.9551V13.9572ZM145.24 17.192C145.325 17.192 145.407 17.2047 145.486 17.2299C145.565 17.2551 145.634 17.2951 145.697 17.3498C145.757 17.4045 145.805 17.476 145.839 17.5685C145.874 17.6611 145.891 17.7725 145.891 17.9072C145.891 18.0796 145.864 18.2226 145.811 18.3341C145.759 18.4477 145.678 18.5297 145.567 18.5844C145.457 18.6391 145.315 18.6664 145.142 18.6664H144.516V17.192H145.242H145.24Z" fill="white"/>
<path d="M150.867 18.9942V17.6313H152.705V19.9113H154.416V13.959H152.705V16.2095H150.867V13.959H149.156V19.9113H150.867V18.9942Z" fill="white"/>
<path d="M163.358 18.9944V13.957H161.613V19.9093H163.358V18.9923V18.9944Z" fill="white"/>
<path d="M160.081 19.6529C160.396 19.4825 160.623 19.2406 160.767 18.9315C160.911 18.6223 160.982 18.2626 160.982 17.8546C160.982 17.3477 160.896 16.9502 160.723 16.662C160.552 16.3739 160.295 16.1719 159.962 16.0521C159.626 15.9343 159.21 15.8754 158.714 15.8754H157.873V13.9551H156.191V19.9074H158.837C159.35 19.9074 159.765 19.8211 160.081 19.6508V19.6529ZM157.873 18.6643V17.1899H158.597C158.683 17.1899 158.764 17.2026 158.843 17.2278C158.923 17.253 158.991 17.293 159.052 17.3477C159.112 17.4024 159.16 17.4739 159.194 17.5664C159.229 17.659 159.246 17.7704 159.246 17.905C159.246 18.0775 159.219 18.2205 159.169 18.332C159.117 18.4456 159.035 18.5276 158.925 18.5823C158.814 18.637 158.672 18.6643 158.499 18.6643H157.873Z" fill="white"/>
<path d="M168.301 14.9517C168.101 15.263 167.901 15.5722 167.7 15.8814L166.926 17.0761H166.805V13.959H165.145V19.9113H166.565C166.759 19.6168 166.956 19.3139 167.158 19.0027C167.36 18.6914 167.579 18.3548 167.821 17.991L168.608 16.7879H168.721V19.9113H170.381V13.959H168.944C168.719 14.3123 168.504 14.6447 168.301 14.9538V14.9517Z" fill="white"/>
<path d="M166.705 13.3885C166.978 13.5105 167.325 13.5715 167.742 13.5715C168.159 13.5715 168.514 13.5105 168.789 13.3885C169.063 13.2665 169.269 13.0856 169.405 12.8458C169.541 12.606 169.609 12.3116 169.612 11.9603H168.401C168.401 12.1686 168.349 12.341 168.245 12.4756C168.141 12.6102 167.972 12.6776 167.744 12.6776C167.517 12.6776 167.348 12.606 167.243 12.4672C167.139 12.3263 167.087 12.1433 167.087 11.9141L165.879 11.9603C165.885 12.3116 165.956 12.606 166.092 12.8458C166.227 13.0856 166.434 13.2665 166.709 13.3885H166.705Z" fill="white"/>
<path d="M179.365 15.0845C179.53 14.6996 179.693 14.3253 179.849 13.9572H178.011C177.95 14.1465 177.894 14.3168 177.844 14.4683C177.794 14.6197 177.748 14.7606 177.706 14.8931C177.662 15.0256 177.621 15.1582 177.577 15.2907C177.533 15.4253 177.487 15.5704 177.439 15.7303L177.137 16.6704H177.016L176.701 15.7176C176.651 15.5641 176.605 15.4232 176.561 15.2907C176.517 15.1603 176.473 15.0278 176.429 14.8974C176.386 14.7648 176.34 14.6239 176.29 14.4704C176.237 14.3189 176.183 14.1465 176.121 13.9551H174.203C174.355 14.2853 174.489 14.5819 174.608 14.8427C174.725 15.1035 174.848 15.3748 174.979 15.6587L176.173 18.2773C176.05 18.5718 175.929 18.8536 175.814 19.1228C175.699 19.3921 175.586 19.6529 175.476 19.9095H177.295C177.425 19.615 177.56 19.2995 177.702 18.9651C177.844 18.6307 177.977 18.3173 178.103 18.0249L178.906 16.1509C179.046 15.8228 179.2 15.4673 179.365 15.0824V15.0845Z" fill="white"/>
<path d="M184.842 18.9942V19.9113H186.553V13.959H184.842V16.2095H183.004V13.959H181.293V19.9113H183.004V17.6313H184.842V18.9942Z" fill="white"/>
<path d="M191.904 18.9879V19.9113H193.565V13.959H192.128C191.902 14.3123 191.687 14.6447 191.485 14.9538C191.285 15.2651 191.084 15.5743 190.884 15.8835L190.11 17.0782H189.989V13.9611H188.328V19.9134H189.749C189.943 19.6189 190.139 19.3161 190.342 19.0048C190.544 18.6935 190.763 18.357 191.005 17.9931L191.792 16.79H191.904V18.99V18.9879Z" fill="white"/>
<path d="M199.652 17.051C199.468 16.9374 199.249 16.8512 198.995 16.7923V16.6703C199.201 16.6219 199.389 16.5399 199.554 16.4221C199.719 16.3043 199.85 16.1508 199.946 15.9636C200.042 15.7764 200.09 15.5576 200.09 15.3052C200.09 15.1054 200.057 14.9224 199.986 14.7584C199.917 14.5943 199.798 14.4534 199.631 14.3335C199.464 14.2136 199.237 14.1211 198.951 14.0559C198.663 13.9907 198.3 13.957 197.862 13.957H195.348V19.9093H197.555C198.085 19.9093 198.523 19.8694 198.87 19.7894C199.214 19.7095 199.485 19.5959 199.681 19.4487C199.877 19.3015 200.015 19.1248 200.096 18.9166C200.176 18.7084 200.217 18.477 200.217 18.2204C200.217 17.9343 200.169 17.6946 200.073 17.5053C199.977 17.3139 199.836 17.1624 199.652 17.0489V17.051ZM197.027 15.6838V15.1559H197.73C197.937 15.1559 198.091 15.2085 198.189 15.3136C198.287 15.4188 198.335 15.566 198.335 15.7574C198.335 15.8857 198.31 15.9951 198.258 16.0856C198.208 16.176 198.133 16.2454 198.033 16.2938C197.933 16.3422 197.81 16.3674 197.664 16.3674H197.025V15.6838H197.027ZM198.367 18.4202C198.312 18.5127 198.231 18.5801 198.123 18.6242C198.014 18.6684 197.881 18.6915 197.72 18.6915H197.027V17.4716H197.757C197.987 17.4716 198.158 17.5221 198.275 17.6252C198.392 17.7282 198.448 17.8776 198.448 18.0753C198.448 18.212 198.421 18.3256 198.367 18.4181V18.4202Z" fill="white"/>
<path d="M205.855 18.536H203.416V17.5412H205.696V16.2939H203.416V15.3285H205.809V13.9551H201.742V19.9074H205.855V18.5339V18.536Z" fill="white"/>
<path d="M209.211 18.9942V17.9826H210.242C210.734 17.9826 211.131 17.8963 211.437 17.7239C211.742 17.5514 211.965 17.3116 212.107 17.0045C212.249 16.6975 212.32 16.3378 212.32 15.9298C212.32 15.4292 212.234 15.0338 212.061 14.7456C211.89 14.4575 211.633 14.2534 211.298 14.1357C210.96 14.0179 210.544 13.959 210.05 13.959H207.527V19.9113H209.209V18.9942H209.211ZM210.181 15.3114C210.261 15.3345 210.329 15.3745 210.39 15.4271C210.45 15.4818 210.498 15.5533 210.532 15.6437C210.567 15.7342 210.584 15.8456 210.584 15.9802C210.584 16.1527 210.557 16.2957 210.507 16.4072C210.455 16.5187 210.373 16.6007 210.263 16.6554C210.152 16.7101 210.008 16.7374 209.833 16.7374H209.211V15.2756H209.937C210.023 15.2756 210.104 15.2883 210.183 15.3114H210.181Z" fill="white"/>
<path d="M217.286 20.0098C217.457 19.9951 217.624 19.9741 217.785 19.9446C217.946 19.9152 218.1 19.8773 218.246 19.8311C218.392 19.7827 218.526 19.7301 218.644 19.6691L218.561 18.1021C218.425 18.2031 218.292 18.2872 218.163 18.3566C218.031 18.4261 217.902 18.4807 217.77 18.5186C217.641 18.5586 217.512 18.5859 217.384 18.6048C217.257 18.6238 217.134 18.6322 217.013 18.6322C216.735 18.6322 216.495 18.588 216.291 18.4955C216.087 18.405 215.917 18.2809 215.784 18.1253C215.65 17.9696 215.55 17.7888 215.484 17.5847C215.417 17.3807 215.383 17.1662 215.383 16.939C215.383 16.571 215.448 16.2639 215.577 16.0157C215.707 15.7675 215.884 15.5824 216.107 15.4583C216.331 15.3342 216.585 15.2732 216.869 15.2732C217.023 15.2732 217.19 15.2943 217.365 15.3321C217.543 15.3721 217.731 15.4331 217.927 15.5172C218.123 15.6013 218.331 15.7149 218.546 15.8537L218.667 14.2679C218.549 14.2048 218.413 14.1459 218.258 14.0954C218.104 14.0449 217.941 13.9986 217.768 13.9587C217.595 13.9187 217.413 13.8851 217.228 13.8619C217.042 13.8388 216.854 13.8262 216.667 13.8262C216.009 13.8262 215.452 13.9629 214.997 14.2342C214.543 14.5055 214.194 14.8757 213.958 15.3468C213.72 15.818 213.602 16.3501 213.602 16.9453C213.602 17.4165 213.675 17.8392 213.821 18.2199C213.967 18.5985 214.177 18.9224 214.455 19.1917C214.73 19.4609 215.064 19.6691 215.454 19.8142C215.844 19.9594 216.283 20.0309 216.769 20.0309C216.94 20.0309 217.111 20.0246 217.282 20.0098H217.286Z" fill="white"/>
<path d="M223.768 16.7879H223.881V19.9113H225.542V13.959H224.104C223.879 14.3123 223.664 14.6447 223.461 14.9538C223.261 15.2651 223.061 15.5743 222.861 15.8835L222.087 17.0782H221.965V13.9611H220.305V19.9134H221.726C221.92 19.6189 222.116 19.3161 222.318 19.0048C222.52 18.6935 222.74 18.357 222.982 17.9931L223.768 16.79V16.7879Z" fill="white"/>
<path d="M228.493 15.4462H228.683V19.9093H230.386V15.4462H232.03V13.957H227.039V15.4462H228.493Z" fill="white"/>
<path d="M235.938 18.536H235.189V17.5412H237.469V16.2939H235.189V15.3285H237.582V13.9551H233.516V19.9074H237.628V18.5339H235.938V18.536Z" fill="white"/>
<path d="M239.008 13.957V15.4462H240.652V19.9093H242.354V15.4462H243.999V13.957H239.008Z" fill="white"/>
<path d="M98.5669 26.8679C98.3666 27.1792 98.1663 27.4884 97.966 27.7976L97.192 28.9922H97.071V25.873H95.4102V31.8274H96.831C97.0251 31.533 97.2212 31.2301 97.4236 30.9188C97.6259 30.6075 97.845 30.271 98.087 29.9071L98.8736 28.7041H98.9863V31.8274H100.647V25.873H99.2095C98.9842 26.2264 98.7693 26.5587 98.569 26.8679H98.5669Z" fill="white"/>
<path d="M109.38 29.9052L109.12 27.8881C109.072 27.5201 109.028 27.1751 108.986 26.8533C108.944 26.5315 108.903 26.2034 108.859 25.8711H107.16C107.054 26.1803 106.954 26.4621 106.864 26.7187C106.774 26.9753 106.683 27.234 106.589 27.4948L106.046 29.0365H105.94L105.36 27.4906C105.264 27.2319 105.166 26.9711 105.068 26.7082C104.97 26.4453 104.865 26.1656 104.755 25.8711H103.033C102.987 26.2055 102.948 26.5336 102.908 26.8575C102.869 27.1814 102.829 27.5243 102.785 27.8839L102.533 29.8968C102.489 30.2585 102.447 30.5951 102.412 30.9043C102.374 31.2155 102.337 31.5205 102.297 31.8255H103.874C103.918 31.4721 103.96 31.1335 103.999 30.8117C104.037 30.4899 104.075 30.1849 104.108 29.901L104.252 28.7105H104.362L104.817 29.9998C104.892 30.2039 104.965 30.41 105.038 30.6203C105.111 30.8306 105.184 31.0389 105.255 31.2429C105.326 31.4469 105.395 31.6425 105.462 31.8255H106.584C106.668 31.5458 106.756 31.2534 106.847 30.9442C106.939 30.635 107.033 30.3195 107.127 29.9998L107.509 28.7105H107.619L107.77 29.9136C107.803 30.1954 107.838 30.4941 107.88 30.8138C107.92 31.1335 107.962 31.47 108.001 31.8255H109.624C109.587 31.5163 109.547 31.2092 109.508 30.9043C109.468 30.5993 109.426 30.267 109.38 29.9052Z" fill="white"/>
<path d="M113.688 30.452H112.939V29.4572H115.222V28.2099H112.939V27.2445H115.332V25.8711H111.266V31.8255H115.378V30.452H113.688Z" fill="white"/>
<path d="M120.608 26.8176V28.1216H118.769V25.8711H117.059V31.8255H118.769V29.5455H120.608V31.8255H122.318V25.8711H120.608V26.8176Z" fill="white"/>
<path d="M127.251 26.8679C127.05 27.1792 126.85 27.4884 126.65 27.7976L125.876 28.9922H125.755V25.873H124.094V31.8274H125.515C125.709 31.533 125.905 31.2301 126.107 30.9188C126.31 30.6075 126.529 30.271 126.771 29.9071L127.557 28.7041H127.67V31.8274H129.331V25.873H127.893C127.668 26.2264 127.453 26.5587 127.251 26.8679Z" fill="white"/>
<path d="M136.668 26.8679C136.468 27.1792 136.268 27.4884 136.068 27.7976L135.294 28.9922H135.173V25.873H133.512V31.8274H134.933C135.127 31.533 135.323 31.2301 135.525 30.9188C135.728 30.6075 135.947 30.271 136.189 29.9071L136.975 28.7041H137.088V31.8274H138.749V25.873H137.311C137.086 26.2264 136.871 26.5587 136.668 26.8679Z" fill="white"/>
<path d="M147.482 29.9052L147.221 27.8881C147.173 27.5201 147.129 27.1751 147.09 26.8533C147.048 26.5315 147.006 26.2034 146.962 25.8711H145.264C145.158 26.1803 145.057 26.4621 144.968 26.7187C144.878 26.9753 144.786 27.234 144.692 27.4948L144.15 29.0365H144.043L143.463 27.4906C143.367 27.2319 143.269 26.9711 143.171 26.7082C143.073 26.4453 142.969 26.1656 142.858 25.8711H141.135C141.091 26.2055 141.049 26.5336 141.01 26.8575C140.97 27.1814 140.93 27.5243 140.887 27.8839L140.634 29.8968C140.59 30.2585 140.549 30.5951 140.513 30.9043C140.476 31.2155 140.438 31.5205 140.398 31.8255H141.976C142.02 31.4721 142.061 31.1335 142.101 30.8117C142.141 30.4899 142.176 30.1849 142.209 29.901L142.353 28.7105H142.466L142.921 29.9998C142.996 30.2039 143.069 30.41 143.142 30.6203C143.215 30.8306 143.288 31.0389 143.359 31.2429C143.432 31.4469 143.499 31.6425 143.566 31.8255H144.688C144.77 31.5458 144.859 31.2534 144.951 30.9442C145.043 30.635 145.137 30.3195 145.231 29.9998L145.612 28.7105H145.723L145.873 29.9136C145.907 30.1954 145.942 30.4941 145.984 30.8138C146.023 31.1335 146.065 31.47 146.105 31.8255H147.728C147.688 31.5163 147.651 31.2092 147.611 30.9043C147.572 30.5993 147.528 30.267 147.484 29.9052H147.482Z" fill="white"/>
<path d="M156.322 29.9052L156.061 27.8881C156.013 27.5201 155.969 27.1751 155.927 26.8533C155.886 26.5315 155.844 26.2034 155.8 25.8711H154.102C153.995 26.1803 153.895 26.4621 153.805 26.7187C153.716 26.9753 153.624 27.234 153.53 27.4948L152.988 29.0365H152.881L152.301 27.4906C152.205 27.2319 152.107 26.9711 152.009 26.7082C151.911 26.4453 151.807 26.1656 151.696 25.8711H149.975C149.929 26.2055 149.889 26.5336 149.85 26.8575C149.81 27.1814 149.77 27.5243 149.726 27.8839L149.474 29.8968C149.43 30.2585 149.389 30.5951 149.353 30.9043C149.315 31.2155 149.278 31.5205 149.238 31.8255H150.816C150.859 31.4721 150.901 31.1335 150.941 30.8117C150.978 30.4899 151.016 30.1849 151.049 29.901L151.193 28.7105H151.304L151.759 29.9998C151.834 30.2039 151.907 30.41 151.98 30.6203C152.053 30.8306 152.126 31.0389 152.197 31.2429C152.268 31.4469 152.337 31.6425 152.403 31.8255H153.526C153.609 31.5458 153.697 31.2534 153.789 30.9442C153.881 30.635 153.974 30.3195 154.068 29.9998L154.45 28.7105H154.561L154.711 29.9136C154.744 30.1954 154.78 30.4941 154.822 30.8138C154.861 31.1335 154.903 31.47 154.943 31.8255H156.566C156.528 31.5163 156.489 31.2092 156.449 30.9043C156.409 30.5993 156.368 30.267 156.322 29.9052Z" fill="white"/>
<path d="M163.075 29.8108L162.453 27.7643C162.343 27.4047 162.242 27.0787 162.153 26.7821C162.063 26.4877 161.971 26.1827 161.873 25.8672H159.691C159.599 26.168 159.509 26.4666 159.417 26.7611C159.326 27.0555 159.223 27.39 159.111 27.7643L158.485 29.8108C158.385 30.1263 158.28 30.4608 158.174 30.8141C158.065 31.1675 157.963 31.504 157.867 31.8216H159.572C159.647 31.5271 159.724 31.2179 159.805 30.8982C159.82 30.8351 159.835 30.7805 159.849 30.7195H161.658C161.673 30.7826 161.687 30.8372 161.704 30.9025C161.779 31.2158 161.852 31.5229 161.925 31.8216H163.69C163.594 31.504 163.492 31.1717 163.386 30.8246C163.279 30.4776 163.175 30.139 163.073 29.8108H163.075ZM160.826 27.3058L161.347 29.447H160.171L160.707 27.3058H160.828H160.826Z" fill="white"/>
<path d="M168.67 26.8176V28.1216H166.832V25.8711H165.121V31.8255H166.832V29.5455H168.67V31.8255H170.381V25.8711H168.67V26.8176Z" fill="white"/>
<path d="M175.434 26.3841C175.384 26.5356 175.338 26.6786 175.294 26.809C175.25 26.9415 175.208 27.074 175.167 27.2086C175.123 27.3432 175.077 27.4884 175.029 27.6482L174.726 28.5884H174.605L174.29 27.6356C174.24 27.4821 174.194 27.3411 174.151 27.2086C174.107 27.0782 174.063 26.9457 174.019 26.8153C173.975 26.6828 173.929 26.5419 173.879 26.3884C173.827 26.2369 173.773 26.0644 173.71 25.873H171.793C171.945 26.2033 172.079 26.4998 172.198 26.7606C172.315 27.0214 172.438 27.2928 172.569 27.5767L173.763 30.1953C173.639 30.4898 173.518 30.7716 173.404 31.0408C173.289 31.31 173.176 31.5708 173.066 31.8274H174.885C175.014 31.533 175.15 31.2175 175.292 30.8831C175.434 30.5486 175.567 30.2353 175.693 29.9429L176.496 28.0689C176.636 27.7408 176.79 27.3853 176.955 27.0004C177.12 26.6155 177.282 26.2411 177.439 25.873H175.601C175.54 26.0623 175.484 26.2327 175.434 26.3841Z" fill="white"/>
<path d="M182.04 26.8679C181.839 27.1792 181.639 27.4884 181.439 27.7976L180.665 28.9922H180.544V25.873H178.883V31.8274H180.304C180.498 31.533 180.694 31.2301 180.896 30.9188C181.099 30.6075 181.318 30.271 181.56 29.9071L182.346 28.7041H182.459V31.8274H184.12V25.873H182.682C182.457 26.2264 182.242 26.5587 182.04 26.8679Z" fill="white"/>
<path d="M186.723 26.992C186.705 27.3727 186.686 27.7429 186.669 28.0983C186.642 28.6305 186.598 29.0679 186.54 29.415C186.479 29.762 186.396 30.0207 186.283 30.189C186.173 30.3594 186.024 30.4435 185.843 30.4435C185.812 30.4435 185.776 30.4435 185.734 30.4372C185.693 30.433 185.643 30.4267 185.582 30.4182L185.52 31.8338C185.588 31.8506 185.664 31.8674 185.747 31.8821C185.83 31.8969 185.92 31.9095 186.016 31.9179C186.112 31.9263 186.216 31.9305 186.327 31.9305C186.728 31.9305 187.045 31.8632 187.276 31.7307C187.51 31.5982 187.687 31.3963 187.804 31.1292C187.923 30.862 188.009 30.5318 188.059 30.1364C188.109 29.741 188.153 29.2846 188.19 28.7672C188.219 28.3171 188.251 27.8838 188.284 27.4715C188.288 27.4148 188.292 27.3559 188.297 27.297H189.544V31.8274H191.259V25.873H186.778C186.761 26.2369 186.744 26.6113 186.723 26.992Z" fill="white"/>
<path d="M197.895 29.8108L197.273 27.7643C197.163 27.4047 197.063 27.0787 196.973 26.7821C196.883 26.4877 196.789 26.1827 196.693 25.8672H194.511C194.419 26.168 194.33 26.4666 194.238 26.7611C194.146 27.0555 194.044 27.39 193.931 27.7643L193.305 29.8108C193.205 30.1263 193.101 30.4608 192.994 30.8141C192.886 31.1675 192.783 31.504 192.688 31.8216H194.394C194.469 31.5271 194.547 31.2179 194.626 30.8982C194.642 30.8351 194.655 30.7805 194.67 30.7195H196.479C196.493 30.7826 196.508 30.8372 196.524 30.9025C196.6 31.2158 196.673 31.5229 196.746 31.8216H198.511C198.415 31.504 198.313 31.1717 198.206 30.8246C198.1 30.4776 197.995 30.139 197.893 29.8108H197.895ZM195.646 27.3058L196.166 29.447H194.989L195.525 27.3058H195.646Z" fill="white"/>
<path d="M206.773 30.3932C206.608 30.126 206.452 29.8779 206.306 29.6507L205.636 28.578L206.247 27.722C206.471 27.4107 206.692 27.1015 206.913 26.7965C207.132 26.4916 207.355 26.1824 207.583 25.8711H205.644C205.475 26.1445 205.327 26.3822 205.2 26.5841C205.073 26.7881 204.943 26.99 204.812 27.1941L204.27 28.0543H204.046V25.8711H202.344V31.8255H204.046V29.392H204.295L204.883 30.4563C205 30.6729 205.119 30.8937 205.242 31.1167C205.365 31.3396 205.494 31.5752 205.63 31.8255H207.668C207.556 31.6383 207.42 31.4217 207.261 31.1693C207.105 30.919 206.942 30.6603 206.777 30.3932H206.773Z" fill="white"/>
<path d="M213.95 29.8108L213.328 27.7643C213.218 27.4047 213.117 27.0787 213.028 26.7821C212.938 26.4856 212.844 26.1827 212.748 25.8672H210.566C210.474 26.168 210.382 26.4666 210.292 26.7611C210.201 27.0555 210.098 27.39 209.986 27.7643L209.36 29.8108C209.26 30.1263 209.155 30.4608 209.049 30.8141C208.94 31.1675 208.838 31.504 208.742 31.8216H210.449C210.524 31.5271 210.601 31.2179 210.683 30.8982C210.697 30.8351 210.712 30.7805 210.726 30.7195H212.535C212.552 30.7826 212.567 30.8372 212.581 30.9025C212.656 31.2158 212.731 31.5229 212.802 31.8216H214.568C214.472 31.504 214.369 31.1717 214.263 30.8246C214.156 30.4776 214.052 30.139 213.95 29.8108ZM211.701 27.3058L212.22 29.447H211.044L211.58 27.3058H211.701Z" fill="white"/>
<path d="M219.541 26.8176V28.1216H217.703V25.8711H215.992V31.8255H217.703V29.5455H219.541V31.8255H221.252V25.8711H219.541V26.8176Z" fill="white"/>
<path d="M222.742 27.3623H224.386V31.8255H226.089V27.3623H227.733V25.8711H222.742V27.3623Z" fill="white"/>
<path d="M233.405 29.8108L232.783 27.7643C232.673 27.4047 232.572 27.0787 232.483 26.7821C232.393 26.4877 232.301 26.1827 232.203 25.8672H230.021C229.929 26.168 229.837 26.4666 229.747 26.7611C229.656 27.0555 229.553 27.39 229.441 27.7643L228.817 29.8108C228.717 30.1263 228.612 30.4608 228.506 30.8141C228.397 31.1675 228.295 31.504 228.199 31.8216H229.904C229.979 31.5271 230.056 31.2179 230.138 30.8982C230.152 30.8351 230.167 30.7805 230.181 30.7195H231.99C232.007 30.7826 232.022 30.8372 232.036 30.9025C232.111 31.2158 232.186 31.5229 232.257 31.8216H234.022C233.926 31.504 233.824 31.1717 233.718 30.8246C233.611 30.4776 233.507 30.139 233.405 29.8108ZM231.156 27.3058L231.677 29.447H230.501L231.037 27.3058H231.158H231.156Z" fill="white"/>
</svg>
