<svg width="270" height="270" viewBox="0 0 270 270" fill="none" xmlns="http://www.w3.org/2000/svg">
<rect width="270" height="270" rx="135" fill="#1E2947"/>
<path d="M230 102.994L175.758 131.659V152.098L230 180.768V160.33L195.092 141.881L230 123.432V102.994Z" fill="#71CB8A"/>
<path d="M159.816 69L118.781 201H141.791L182.826 69H159.816Z" fill="#71CB8A"/>
<path d="M106.027 130.575L106.158 130.541C106.443 130.502 106.729 130.262 106.729 129.852C106.729 129.788 106.729 129.715 106.724 129.641V129.553C106.71 129.231 106.476 128.952 106.172 128.893C103.122 128.307 99.3288 129.544 98.2109 133.625C97.6075 135.83 98.0472 138.484 100.073 140.396C100.606 139.623 101.134 138.846 101.668 138.074C101.139 136.954 100.98 135.835 101.219 134.779C101.654 132.853 103.361 131.362 106.027 130.58V130.575Z" fill="white"/>
<path d="M107.303 145.035C107.831 144.277 108.355 143.515 108.879 142.747C110.24 140.753 111.596 138.734 112.924 136.744L113.673 135.625C118.172 129.177 123.27 121.869 128.55 115.412C131.772 111.467 135.191 107.468 138.937 103.753C138.081 102.272 137.033 100.859 135.817 99.5293C122.629 110.572 112.321 125.051 102.481 139.374C102.462 139.399 102.448 139.423 102.429 139.448C101.737 140.455 101.05 141.462 100.358 142.464L99.3895 143.871C92.1217 153.956 83.881 165.38 73.129 173.226C67.9891 176.985 60.001 181.336 51.0963 180.734C50.8157 180.73 50.3246 180.666 50.0347 180.583C48.7485 180.324 47.7758 179.943 47.1818 179.459C45.2736 178.173 45.3625 175.792 46.2558 174.13L46.2698 174.106C46.2885 174.062 46.3306 174.008 46.3774 173.945C46.6907 173.51 46.7188 172.928 46.4428 172.468L45.5683 171.007C44.7685 169.672 43.6367 168.587 42.2898 167.868C41.939 167.683 41.5322 167.678 41.1814 167.859C40.8306 168.035 40.5828 168.367 40.5079 168.768L40.0823 171.016C39.8765 173.118 39.7783 178.344 43.3608 181.556C45.8863 183.643 49.0712 184.176 52.2468 184.176C53.5517 184.176 54.8565 184.088 56.1099 183.975C76.1829 181.629 93.7726 163.268 104.992 148.276C105.759 147.22 106.526 146.135 107.293 145.035H107.303Z" fill="white"/>
<path d="M123.623 86.857C119.26 85.6398 114.391 85.0825 108.302 85.1021C95.908 85.0678 86.1147 87.4338 78.3932 92.3368C69.1143 98.1491 62.693 108.131 61.2104 119.042C60.3499 126.022 61.2198 131.336 63.895 135.32C70.2181 143.415 82.5696 142.105 90.3893 136.244C99.1818 129.625 105.266 117.854 107.081 103.956C107.142 103.487 106.857 103.047 106.417 102.93L105.856 102.783C105.421 102.666 104.972 102.91 104.808 103.35L104.668 103.727C101.445 112.452 97.3859 122.366 90.0152 129.581C82.1394 137.197 75.5637 137.93 71.4247 137.202C69.0348 136.855 67.1641 135.711 65.8733 133.8C62.7445 129.17 63.895 121.765 64.3205 119.609C67.1968 105.594 76.4617 97.8264 83.7248 93.7789C93.0785 88.5679 104.729 86.4806 115.691 88.0546C123.95 89.0372 131.733 93.031 136.84 98.6672C138.014 99.9577 139.038 101.341 139.903 102.788C139.987 102.93 140.072 103.072 140.156 103.213C143.518 109.148 143.907 115.835 141.283 122.557C139.225 127.807 136.98 131.698 134.207 134.792C129.913 139.602 121.5 144.08 110.355 142.941C109.789 143.772 109.218 144.603 108.648 145.424C111.519 146.158 114.405 146.519 117.244 146.519C124.063 146.519 130.624 144.432 136.087 140.404C143.612 134.851 148.13 126.272 148.799 116.236C149.528 100.618 136.251 90.0637 123.618 86.8668L123.623 86.857Z" fill="white"/>
<path d="M159.052 89.1091L158.907 88.5714C158.78 88.1021 158.341 87.8186 157.887 87.9066C152.592 88.9331 147.096 91.3773 141.516 95.1853C142.577 96.2217 143.616 97.3704 144.593 98.6512C146.212 97.3215 147.891 96.0603 149.641 94.8969C152.391 93.0442 155.38 91.4946 158.519 90.297C158.972 90.1259 159.192 89.6322 159.052 89.1042V89.1091Z" fill="white"/>
</svg>
