<svg width="64" height="43" viewBox="0 0 64 43" fill="none" xmlns="http://www.w3.org/2000/svg">
<path d="M63.9931 11.0273L45.7227 20.2625V26.8472L63.9931 36.0839V29.4993L52.235 23.5556L63.9931 17.612V11.0273Z" fill="white"/>
<path d="M40.3569 0.0742188L26.5352 42.6011H34.2857L48.1074 0.0742188H40.3569Z" fill="white"/>
<path d="M22.2595 19.922L22.3036 19.911C22.3997 19.8984 22.4958 19.8212 22.4958 19.6889C22.4958 19.6685 22.4958 19.6448 22.4942 19.6212V19.5929C22.4895 19.4889 22.4107 19.3992 22.3083 19.3803C21.2812 19.1913 20.0036 19.5897 19.6271 20.9048C19.4239 21.615 19.572 22.4702 20.2541 23.086C20.4337 22.8371 20.6117 22.5867 20.7913 22.3379C20.6133 21.9773 20.5597 21.6166 20.6401 21.2764C20.7866 20.6559 21.3616 20.1756 22.2595 19.9236V19.922Z" fill="#49CE84"/>
<path d="M22.6696 24.5748C22.8476 24.3307 23.024 24.085 23.2005 23.8377C23.6589 23.1952 24.1157 22.5447 24.5631 21.9037L24.8152 21.5431C26.3306 19.4658 28.0477 17.1113 29.8262 15.0309C30.9116 13.76 32.0632 12.4717 33.325 11.2748C33.0367 10.7976 32.6838 10.3424 32.2742 9.91406C27.8319 13.4718 24.3599 18.1366 21.0455 22.751C21.0392 22.7589 21.0344 22.7668 21.0281 22.7747C20.795 23.0991 20.5634 23.4235 20.3303 23.7464L20.0042 24.1999C17.5562 27.4489 14.7805 31.1295 11.1588 33.6572C9.42758 34.8683 6.73696 36.2699 3.73758 36.0762C3.64306 36.0747 3.47765 36.0542 3.37998 36.0274C2.94677 35.9439 2.61911 35.8211 2.41905 35.6652C1.77632 35.251 1.80625 34.484 2.10713 33.9485L2.11186 33.9407C2.11816 33.9265 2.13234 33.9092 2.14809 33.8887C2.25364 33.7485 2.26309 33.5611 2.17015 33.4131L1.87556 32.9422C1.60619 32.5122 1.22496 32.1626 0.771275 31.9311C0.653127 31.8713 0.516076 31.8697 0.397928 31.928C0.27978 31.9846 0.196288 32.0917 0.171084 32.2209L0.0277307 32.9453C-0.0415827 33.6225 -0.0746641 35.3061 1.13202 36.3408C1.98269 37.0133 3.05547 37.185 4.1251 37.185C4.56461 37.185 5.00412 37.1566 5.4263 37.1204C12.1875 36.3644 18.1122 30.4491 21.8914 25.6189C22.1498 25.2787 22.4081 24.9291 22.6665 24.5748H22.6696Z" fill="#49CE84"/>
<path d="M28.1732 5.83117C26.7034 5.43902 25.0635 5.25949 23.0125 5.26579C18.8379 5.25476 15.5392 6.01701 12.9384 7.59663C9.81296 9.46918 7.65006 12.6851 7.15069 16.2003C6.86084 18.4492 7.15384 20.1611 8.05492 21.4447C10.1847 24.0527 14.3451 23.6306 16.979 21.7423C19.9406 19.6099 21.9901 15.8176 22.6013 11.3402C22.6218 11.189 22.5257 11.0472 22.3776 11.0094L22.1886 10.9622C22.0421 10.9244 21.8908 11.0031 21.8357 11.1449L21.7884 11.2661C20.7031 14.0773 19.3357 17.2712 16.853 19.5958C14.2002 22.0494 11.9853 22.2857 10.5912 22.051C9.78618 21.9392 9.15606 21.5707 8.72127 20.9549C7.66739 19.4635 8.05492 17.0775 8.19827 16.383C9.16708 11.8677 12.2878 9.36524 14.7342 8.06122C17.8848 6.38239 21.8089 5.70991 25.5014 6.21702C28.2834 6.53358 30.9047 7.82027 32.625 9.63612C33.0204 10.0519 33.3654 10.4976 33.6568 10.9638C33.6851 11.0094 33.7135 11.0551 33.7419 11.1008C34.8745 13.0127 35.0053 15.1672 34.1215 17.3326C33.4284 19.0241 32.6722 20.2777 31.7381 21.2746C30.2919 22.8243 27.458 24.2669 23.704 23.8999C23.5134 24.1677 23.3212 24.4354 23.129 24.7C24.0963 24.9362 25.0682 25.0528 26.0244 25.0528C28.3212 25.0528 30.5314 24.3803 32.3713 23.0826C34.906 21.2935 36.4278 18.5296 36.653 15.2963C36.8988 10.2645 32.4265 6.8643 28.1716 5.83432L28.1732 5.83117Z" fill="#49CE84"/>
<path d="M40.0855 6.55858L40.0367 6.38534C39.9941 6.23415 39.8461 6.14281 39.6933 6.17116C37.91 6.50188 36.059 7.28933 34.1797 8.51617C34.5373 8.85005 34.887 9.22015 35.2162 9.63278C35.7613 9.2044 36.3268 8.79808 36.916 8.42326C37.8423 7.82637 38.8489 7.32713 39.9059 6.94128C40.0587 6.88616 40.1328 6.72709 40.0855 6.557V6.55858Z" fill="#49CE84"/>
</svg>
