<svg width="62" height="42" viewBox="0 0 62 42" fill="none" xmlns="http://www.w3.org/2000/svg">
<path d="M61.9978 10.8184L44.2969 19.9391V26.4422L61.9978 35.5645V29.0614L50.6062 23.1914L61.9978 17.3214V10.8184Z" fill="#1B2949"/>
<path d="M39.1018 0L25.7109 42H33.2198L46.6107 0H39.1018Z" fill="#1B2949"/>
<path d="M21.5693 19.6023L21.6121 19.5914C21.7052 19.5789 21.7983 19.5027 21.7983 19.3721C21.7983 19.3518 21.7983 19.3285 21.7967 19.3052V19.2772C21.7922 19.1745 21.7159 19.0859 21.6166 19.0672C20.6216 18.8806 19.3838 19.2741 19.0191 20.5728C18.8222 21.2743 18.9656 22.1189 19.6265 22.727C19.8005 22.4813 19.9729 22.234 20.1469 21.9882C19.9745 21.632 19.9226 21.2758 20.0004 20.9399C20.1423 20.3271 20.6994 19.8527 21.5693 19.6038V19.6023Z" fill="#49CE84"/>
<path d="M21.963 24.1978C22.1354 23.9567 22.3063 23.7141 22.4773 23.4699C22.9214 22.8353 23.364 22.1929 23.7974 21.5599L24.0416 21.2037C25.5098 19.1521 27.1734 16.8268 28.8965 14.7722C29.948 13.517 31.0637 12.2447 32.2862 11.0626C32.0069 10.5913 31.665 10.1418 31.2682 9.71875C26.9643 13.2324 23.6006 17.8394 20.3894 22.3967C20.3833 22.4045 20.3788 22.4122 20.3727 22.42C20.1468 22.7404 19.9224 23.0608 19.6965 23.3797L19.3806 23.8276C17.0089 27.0364 14.3197 30.6713 10.811 33.1677C9.13371 34.3638 6.52696 35.7481 3.62107 35.5568C3.5295 35.5552 3.36925 35.535 3.27462 35.5086C2.85492 35.4261 2.53747 35.3048 2.34364 35.1508C1.72095 34.7418 1.74995 33.9843 2.04145 33.4554L2.04603 33.4477C2.05214 33.4337 2.06587 33.4166 2.08113 33.3963C2.18339 33.2579 2.19255 33.0728 2.1025 32.9266L1.8171 32.4616C1.55612 32.0369 1.18678 31.6916 0.747233 31.463C0.632768 31.4039 0.499989 31.4023 0.385524 31.4599C0.271059 31.5159 0.19017 31.6217 0.165751 31.7492L0.0268663 32.4647C-0.0402865 33.1335 -0.0723367 34.7962 1.09673 35.8181C1.92088 36.4822 2.96022 36.6518 3.99652 36.6518C4.42233 36.6518 4.84814 36.6238 5.25716 36.588C11.8076 35.8414 17.5477 29.9994 21.209 25.229C21.4593 24.8931 21.7096 24.5478 21.9599 24.1978H21.963Z" fill="#49CE84"/>
<path d="M27.2918 5.68549C25.8679 5.2982 24.2791 5.12089 22.292 5.12711C18.2476 5.11622 15.0517 5.86903 12.5319 7.42908C9.50396 9.27843 7.40848 12.4545 6.92468 15.9261C6.64386 18.1472 6.92773 19.8379 7.80072 21.1056C9.86414 23.6813 13.8948 23.2644 16.4466 21.3995C19.3159 19.2935 21.3015 15.5482 21.8937 11.1262C21.9135 10.9769 21.8204 10.8369 21.6769 10.7996L21.4938 10.7529C21.3519 10.7156 21.2053 10.7934 21.1519 10.9334L21.1061 11.0531C20.0546 13.8295 18.7298 16.9838 16.3246 19.2795C13.7544 21.7028 11.6086 21.9361 10.2579 21.7044C9.47801 21.594 8.86753 21.23 8.4463 20.6218C7.42527 19.1489 7.80072 16.7925 7.9396 16.1066C8.87822 11.6473 11.9016 9.17577 14.2718 7.88792C17.3242 6.22988 21.126 5.56573 24.7034 6.06656C27.3987 6.37919 29.9383 7.64994 31.6049 9.4433C31.988 9.85392 32.3222 10.2941 32.6045 10.7545C32.632 10.7996 32.6595 10.8447 32.687 10.8898C33.7843 12.778 33.911 14.9058 33.0548 17.0445C32.3832 18.7149 31.6507 19.953 30.7456 20.9376C29.3446 22.4681 26.5989 23.8928 22.962 23.5304C22.7773 23.7948 22.5911 24.0592 22.4049 24.3205C23.342 24.5538 24.2837 24.6689 25.2101 24.6689C27.4353 24.6689 29.5766 24.0048 31.3592 22.7232C33.8148 20.9562 35.2891 18.2265 35.5074 15.0333C35.7455 10.0639 31.4126 6.70582 27.2903 5.6886L27.2918 5.68549Z" fill="#49CE84"/>
<path d="M38.8389 6.40332L38.7916 6.23223C38.7504 6.08292 38.6069 5.9927 38.4589 6.0207C36.7312 6.34733 34.9379 7.12502 33.1172 8.33667C33.4636 8.66641 33.8025 9.03192 34.1214 9.43943C34.6495 9.01637 35.1974 8.61508 35.7682 8.2449C36.6656 7.65541 37.6408 7.16235 38.6649 6.78128C38.813 6.72684 38.8847 6.56975 38.8389 6.40177V6.40332Z" fill="#49CE84"/>
</svg>
